<svg width="52" height="52" viewBox="0 0 52 52" fill="none" xmlns="http://www.w3.org/2000/svg">
<path d="M37.57 11.8299C37.0558 11.8299 36.5531 11.9824 36.1255 12.2681C35.6979 12.5538 35.3647 12.9599 35.1679 13.4349C34.9711 13.91 34.9196 14.4328 35.0199 14.9372C35.1203 15.4415 35.3679 15.9048 35.7315 16.2684C36.0951 16.632 36.5584 16.8796 37.0628 16.98C37.5671 17.0803 38.0899 17.0288 38.565 16.832C39.0401 16.6352 39.4461 16.302 39.7318 15.8744C40.0175 15.4468 40.17 14.9441 40.17 14.4299C40.17 13.7404 39.8961 13.079 39.4085 12.5914C38.9209 12.1038 38.2595 11.8299 37.57 11.8299ZM47.5367 17.0733C47.4945 15.2756 47.1578 13.497 46.54 11.8083C45.9891 10.3634 45.1316 9.05502 44.0267 7.97325C42.9538 6.86267 41.6424 6.01063 40.1917 5.48159C38.5074 4.84493 36.7268 4.50054 34.9267 4.46325C32.63 4.33325 31.8933 4.33325 26 4.33325C20.1066 4.33325 19.37 4.33325 17.0733 4.46325C15.2731 4.50054 13.4926 4.84493 11.8083 5.48159C10.3603 6.01599 9.05 6.8673 7.97331 7.97325C6.86274 9.04614 6.0107 10.3575 5.48165 11.8083C4.84499 13.4925 4.5006 15.2731 4.46331 17.0733C4.33331 19.3699 4.33331 20.1066 4.33331 25.9999C4.33331 31.8933 4.33331 32.6299 4.46331 34.9266C4.5006 36.7268 4.84499 38.5073 5.48165 40.1916C6.0107 41.6423 6.86274 42.9537 7.97331 44.0266C9.05 45.1325 10.3603 45.9838 11.8083 46.5183C13.4926 47.1549 15.2731 47.4993 17.0733 47.5366C19.37 47.6666 20.1066 47.6666 26 47.6666C31.8933 47.6666 32.63 47.6666 34.9267 47.5366C36.7268 47.4993 38.5074 47.1549 40.1917 46.5183C41.6424 45.9892 42.9538 45.1372 44.0267 44.0266C45.1365 42.9488 45.9947 41.6393 46.54 40.1916C47.1578 38.5029 47.4945 36.7243 47.5367 34.9266C47.5367 32.6299 47.6667 31.8933 47.6667 25.9999C47.6667 20.1066 47.6667 19.3699 47.5367 17.0733ZM43.6367 34.6666C43.6209 36.0419 43.3718 37.4046 42.9 38.6966C42.554 39.6395 41.9984 40.4915 41.275 41.1883C40.5722 41.9044 39.722 42.4589 38.7833 42.8133C37.4913 43.2851 36.1287 43.5341 34.7533 43.5499C32.5867 43.6583 31.785 43.6799 26.0866 43.6799C20.3883 43.6799 19.5866 43.6799 17.42 43.5499C15.9919 43.5767 14.5699 43.3568 13.2166 42.8999C12.3192 42.5274 11.5079 41.9743 10.8333 41.2749C10.1142 40.5789 9.56547 39.7262 9.22998 38.7833C8.701 37.4727 8.40761 36.0791 8.36331 34.6666C8.36331 32.4999 8.23331 31.6983 8.23331 25.9999C8.23331 20.3016 8.23331 19.4999 8.36331 17.3333C8.37303 15.9272 8.62971 14.5338 9.12165 13.2166C9.50308 12.3021 10.0886 11.4868 10.8333 10.8333C11.4916 10.0883 12.3051 9.49663 13.2166 9.09992C14.5373 8.62335 15.9293 8.37426 17.3333 8.36325C19.5 8.36325 20.3016 8.23325 26 8.23325C31.6983 8.23325 32.5 8.23325 34.6667 8.36325C36.042 8.37903 37.4047 8.62812 38.6967 9.09992C39.6813 9.46533 40.565 10.0594 41.275 10.8333C41.985 11.4988 42.5398 12.3125 42.9 13.2166C43.3815 14.5359 43.6308 15.9288 43.6367 17.3333C43.745 19.4999 43.7667 20.3016 43.7667 25.9999C43.7667 31.6983 43.745 32.4999 43.6367 34.6666ZM26 14.8849C23.8026 14.8892 21.6557 15.5447 19.8307 16.7687C18.0057 17.9926 16.5845 19.73 15.7465 21.7614C14.9086 23.7928 14.6916 26.0269 15.1229 28.1816C15.5542 30.3363 16.6145 32.3147 18.1698 33.867C19.7251 35.4193 21.7057 36.4758 23.8612 36.9029C26.0167 37.33 28.2504 37.1087 30.2802 36.2668C32.3099 35.4248 34.0446 34.0002 35.2649 32.1728C36.4853 30.3454 37.1366 28.1973 37.1367 25.9999C37.1395 24.5376 36.8533 23.0892 36.2943 21.738C35.7354 20.3867 34.9149 19.1593 33.8799 18.1264C32.8449 17.0934 31.6159 16.2752 30.2635 15.7189C28.9112 15.1626 27.4622 14.8792 26 14.8849ZM26 33.2149C24.573 33.2149 23.178 32.7918 21.9915 31.999C20.805 31.2062 19.8803 30.0793 19.3342 28.761C18.7881 27.4426 18.6452 25.9919 18.9236 24.5923C19.202 23.1928 19.8892 21.9072 20.8982 20.8981C21.9072 19.8891 23.1928 19.2019 24.5924 18.9236C25.992 18.6452 27.4427 18.788 28.761 19.3341C30.0794 19.8802 31.2062 20.805 31.999 21.9915C32.7918 23.178 33.215 24.5729 33.215 25.9999C33.215 26.9474 33.0284 27.8856 32.6658 28.761C32.3032 29.6363 31.7717 30.4317 31.1018 31.1017C30.4318 31.7717 29.6364 32.3031 28.761 32.6657C27.8857 33.0283 26.9475 33.2149 26 33.2149Z" fill="white"/>
</svg>
