<?xml version="1.0" standalone="no"?>
<!DOCTYPE svg PUBLIC "-//W3C//DTD SVG 20010904//EN"
 "http://www.w3.org/TR/2001/REC-SVG-20010904/DTD/svg10.dtd">
<svg version="1.0" xmlns="http://www.w3.org/2000/svg"
 width="512.000000pt" height="512.000000pt" viewBox="0 0 512.000000 512.000000"
 preserveAspectRatio="xMidYMid meet">

<g transform="translate(0.000000,512.000000) scale(0.100000,-0.100000)"
fill="#000000" stroke="none">
<path d="M2340 4495 c-349 -45 -665 -173 -934 -378 -633 -481 -908 -1315 -690
-2091 143 -508 494 -941 966 -1190 408 -216 881 -281 1353 -184 581 118 1047
494 1279 1032 160 369 209 846 125 1206 -23 101 -53 154 -114 208 -79 69 -97
72 -457 72 -175 0 -318 4 -318 9 0 5 89 96 199 202 226 221 242 244 249 361 8
133 -27 201 -161 315 -292 249 -644 400 -1029 442 -125 14 -347 12 -468 -4z
m475 -320 c124 -17 268 -55 372 -95 170 -68 369 -189 457 -279 l37 -38 -188
-185 c-103 -102 -207 -202 -230 -222 l-42 -37 -73 54 c-88 66 -164 105 -278
143 -81 27 -93 28 -270 28 -173 0 -191 -2 -273 -27 -167 -52 -306 -135 -428
-256 -126 -127 -214 -278 -261 -451 -31 -115 -33 -374 -4 -490 102 -402 435
-699 840 -750 331 -42 652 71 836 294 80 97 167 265 184 354 l6 32 -455 0
-455 0 2 303 3 302 762 3 762 2 10 -52 c57 -274 30 -610 -69 -893 -151 -426
-469 -747 -885 -891 -322 -112 -716 -126 -1025 -36 -191 56 -399 160 -549 276
-438 338 -682 889 -633 1428 15 166 33 252 82 399 194 586 696 999 1318 1084
131 18 325 18 447 0z m-77 -956 c24 -5 60 -17 80 -27 37 -17 36 -17 -143 -22
-176 -5 -181 -6 -233 -34 -65 -36 -107 -82 -141 -156 l-26 -55 0 -375 0 -375
33 -67 c21 -43 48 -80 76 -103 77 -63 102 -69 301 -75 l180 -5 -60 -20 c-91
-30 -304 -29 -400 3 -113 38 -193 88 -280 176 -132 133 -194 286 -195 477 -1
423 396 747 808 658z"/>
</g>
</svg>
